<svg xmlns="http://www.w3.org/2000/svg" width="22.58" height="22.575" viewBox="0 0 22.58 22.575"><path d="M11.218,37.325a5.788,5.788,0,1,0,5.788,5.788A5.779,5.779,0,0,0,11.218,37.325Zm0,9.551a3.763,3.763,0,1,1,3.763-3.763,3.77,3.77,0,0,1-3.763,3.763Zm7.375-9.788a1.35,1.35,0,1,1-1.35-1.35A1.347,1.347,0,0,1,18.592,37.088Zm3.833,1.37a6.681,6.681,0,0,0-1.824-4.73,6.725,6.725,0,0,0-4.73-1.824c-1.864-.106-7.45-.106-9.314,0a6.715,6.715,0,0,0-4.73,1.819A6.7,6.7,0,0,0,0,38.453C-.1,40.317-.1,45.9,0,47.767A6.681,6.681,0,0,0,1.828,52.5a6.733,6.733,0,0,0,4.73,1.824c1.864.106,7.45.106,9.314,0A6.681,6.681,0,0,0,20.6,52.5a6.725,6.725,0,0,0,1.824-4.73C22.532,45.9,22.532,40.322,22.426,38.458ZM20.018,49.767a3.81,3.81,0,0,1-2.146,2.146c-1.486.589-5.012.453-6.654.453s-5.173.131-6.654-.453a3.81,3.81,0,0,1-2.146-2.146c-.589-1.486-.453-5.012-.453-6.654s-.131-5.173.453-6.654a3.81,3.81,0,0,1,2.146-2.146c1.486-.589,5.012-.453,6.654-.453s5.173-.131,6.654.453a3.81,3.81,0,0,1,2.146,2.146c.589,1.486.453,5.012.453,6.654S20.607,48.286,20.018,49.767Z" transform="translate(0.075 -31.825)"/></svg>